<svg xmlns="http://www.w3.org/2000/svg"  viewBox="0 0 64 64" width="64px" height="64px"><path fill="#72caaf" d="M51.98,49.54c-2.9,3.27-6.36,5.69-10.09,7.26c-1.09,0.45-2.33-0.14-2.68-1.27l-1.14-3.69l-3.04-9.83 c-0.27-0.88,0.07-1.85,0.87-2.3C38.94,38,41,34.74,41,31c0-5.62-4.64-10.16-10.3-10c-5.17,0.16-9.5,4.44-9.69,9.61 c-0.15,3.9,1.93,7.31,5.07,9.09c0.81,0.46,1.16,1.45,0.88,2.35l-3.03,9.79l-1.14,3.69c-0.35,1.13-1.59,1.72-2.68,1.27 c-3.73-1.57-7.19-3.99-10.09-7.26C0.51,38.81,0.77,22.26,10.6,11.82c11.08-11.76,29.72-11.76,40.8,0 C61.23,22.26,61.49,38.81,51.98,49.54z"/><path fill="#5dbc9d" d="M53,31c0,9.68-6.25,17.9-14.93,20.84l-3.04-9.83c-0.27-0.88,0.07-1.85,0.87-2.3 C38.94,38,41,34.74,41,31c0-5.62-4.64-10.16-10.3-10c-5.17,0.16-9.5,4.44-9.69,9.61c-0.15,3.9,1.93,7.31,5.07,9.09 c0.81,0.46,1.16,1.45,0.88,2.35l-3.03,9.79C15.25,48.9,9,40.68,9,31C9,18.85,18.85,9,31,9S53,18.85,53,31z"/><path fill="#8d6c9f" d="M52.126,11.133C46.579,5.243,39.077,2,31,2S15.421,5.243,9.874,11.133 C-0.304,21.939-0.57,39.103,9.27,50.206c2.92,3.294,6.438,5.821,10.457,7.514c0.366,0.154,0.756,0.23,1.147,0.23 c0.431,0,0.862-0.094,1.262-0.279c0.771-0.359,1.356-1.031,1.607-1.842l4.175-13.487c0.42-1.358-0.144-2.837-1.344-3.517 c-2.945-1.666-4.694-4.799-4.566-8.175c0.175-4.633,4.088-8.512,8.723-8.646c2.443-0.079,4.78,0.83,6.541,2.54S40,28.547,40,31 c0,3.241-1.761,6.244-4.595,7.838c-1.188,0.668-1.749,2.125-1.334,3.465l4.187,13.525c0.251,0.812,0.837,1.483,1.607,1.843 c0.762,0.354,1.64,0.372,2.409,0.049c4.019-1.692,7.537-4.22,10.457-7.514C62.57,39.103,62.304,21.939,52.126,11.133z M51.233,48.88c-2.719,3.067-5.995,5.422-9.736,6.996c-0.254,0.106-0.535,0.101-0.788-0.018c-0.26-0.121-0.458-0.348-0.542-0.621 l-0.867-2.801C48.127,49.022,54,40.537,54,31c0-6.962-3.104-13.475-8.515-17.866c-0.428-0.348-1.058-0.283-1.407,0.146 c-0.348,0.429-0.283,1.059,0.146,1.406C49.166,18.697,52,24.644,52,31c0,8.661-5.304,16.372-13.291,19.523l-2.728-8.812 c-0.138-0.445,0.033-0.921,0.405-1.13C39.849,38.634,42,34.963,42,31c0-2.998-1.185-5.801-3.336-7.891 c-2.151-2.089-4.98-3.182-7.992-3.105c-5.666,0.166-10.45,4.908-10.664,10.57c-0.156,4.127,1.982,7.956,5.58,9.991 c0.387,0.22,0.563,0.718,0.419,1.185l-4.175,13.488c-0.084,0.272-0.282,0.499-0.542,0.62c-0.253,0.119-0.534,0.125-0.788,0.018 c-3.741-1.574-7.017-3.929-9.736-6.996c-9.16-10.337-8.913-26.314,0.563-36.376C16.495,7.021,23.48,4,31,4 s14.505,3.021,19.67,8.504C60.146,22.565,60.394,38.543,51.233,48.88z"/><path fill="#8d6c9f" d="M14.062 39.608c-.25-.491-.852-.687-1.345-.438l-1.783.906c-.492.25-.688.853-.438 1.345.177.347.528.547.893.547.152 0 .307-.035.452-.108l1.783-.906C14.116 40.703 14.312 40.101 14.062 39.608zM15.381 43.516l-1.488 1.337c-.411.369-.444 1.002-.075 1.412.197.22.47.332.744.332.238 0 .477-.085.668-.256l1.488-1.337c.411-.369.444-1.002.075-1.412C16.425 43.182 15.792 43.147 15.381 43.516zM11.029 31.186c.018.001.036.001.054.001.528 0 .969-.413.998-.946.029-.552-.394-1.022-.945-1.053l-1.997-.106c-.546-.022-1.022.394-1.052.945s.394 1.022.945 1.053L11.029 31.186zM19.08 47.024L17.988 48.7c-.301.463-.17 1.082.292 1.384.168.109.358.162.545.162.327 0 .647-.16.839-.454l1.091-1.676c.301-.463.17-1.082-.292-1.384C20 46.432 19.38 46.562 19.08 47.024zM12.455 35.055c-.114-.54-.643-.884-1.186-.771l-1.957.414c-.541.114-.886.646-.771 1.186.1.471.515.793.978.793.068 0 .138-.007.208-.021l1.957-.414C12.224 36.126 12.569 35.595 12.455 35.055zM41.351 10.456c-.75-.378-1.523-.717-2.301-1.007-.516-.193-1.094.069-1.287.587s.07 1.094.587 1.286c.709.265 1.415.574 2.099.919.145.073.298.107.45.107.366 0 .718-.201.894-.55C42.042 11.307 41.844 10.705 41.351 10.456zM34.654 8.291c-7.27-1.167-14.717 1.244-19.917 6.445-2.592 2.593-4.479 5.662-5.605 9.124-.171.525.116 1.09.641 1.261.103.033.207.049.31.049.421 0 .813-.269.951-.69 1.029-3.159 2.751-5.961 5.118-8.329 4.749-4.747 11.55-6.949 18.187-5.885.542.09 1.058-.283 1.146-.829C35.571 8.892 35.2 8.378 34.654 8.291z"/></svg>