<svg xmlns="http://www.w3.org/2000/svg"  viewBox="0 0 64 64" width="64px" height="64px"><linearGradient id="7sXin3MfjtfreuHT3BP0pa" x1="31.231" x2="31.231" y1="25" y2="56" gradientUnits="userSpaceOnUse" spreadMethod="reflect"><stop offset="0" stop-color="#6dc7ff"/><stop offset="1" stop-color="#e6abff"/></linearGradient><path fill="url(#7sXin3MfjtfreuHT3BP0pa)" d="M52.027,33.505C48.502,30.118,43.175,25,35.366,25c-6.21,0-10.531,3.221-14.545,6.686 C18.656,30.667,16.357,30,13.837,30c-3.668,0-7.226,2.243-7.375,2.339l1.076,1.686C7.569,34.004,10.746,32,13.837,32 c1.863,0,3.625,0.437,5.318,1.14c-3.122,2.741-6.367,5.534-10.473,6.912l0.328,0.977c-0.264,0.099-0.424,0.172-0.447,0.183 l0.875,1.799C9.458,43,11.566,42,15.86,42c2.193,0,4.468,0.862,6.748,2.057C20.571,45.215,18.464,46,16.126,46 c-2.933,0-4.969-2.109-4.989-2.13l-0.728,0.686l-0.73,0.683C9.784,45.352,12.307,48,16.126,48c3.166,0,5.918-1.21,8.491-2.82 c0.911,0.538,1.819,1.105,2.72,1.668c0.781,0.488,1.567,0.978,2.358,1.453c-0.307,0.298-0.612,0.596-0.913,0.89 C26.368,51.556,23.872,54,22.189,54v2c2.498,0,5.044-2.493,7.992-5.379c0.431-0.422,0.871-0.852,1.316-1.28 C34.239,50.851,37.035,52,39.873,52c8.332,0,13.351-5.088,13.561-5.305l-1.436-1.392c-0.006,0.007-0.111,0.11-0.292,0.271 c-0.776-0.121-1.964-0.659-3.214-1.226c-0.995-0.451-2.099-0.945-3.265-1.367c1.48-0.578,2.804-1.323,4.045-2.024 c0.094-0.053,0.187-0.105,0.281-0.157c1.685,1.226,3.326,2.312,5.447,2.312v-2c-1.235,0-2.301-0.558-3.477-1.364 c1.423-0.695,2.868-1.202,4.477-1.202v-0.007v-1.993v-0.007C55.186,36.539,53.58,34.996,52.027,33.505z M15.86,40 c-0.972,0-1.823,0.057-2.602,0.135c2.767-1.602,5.151-3.675,7.469-5.713c0.129-0.113,0.257-0.226,0.386-0.338 c2.083,1.124,4.074,2.567,6.032,3.99c0.663,0.482,1.331,0.966,2.004,1.44c-0.542,0.391-1.079,0.787-1.614,1.183 c-1.001,0.741-1.988,1.469-2.979,2.139C21.713,41.238,18.81,40,15.86,40z M28.396,45.152c-0.643-0.401-1.289-0.804-1.938-1.199 c0.765-0.538,1.519-1.095,2.268-1.649c0.735-0.544,1.462-1.081,2.188-1.594c1.627,1.053,3.298,1.969,5.041,2.566 c-1.653,0.907-3.239,2.204-4.751,3.595C30.264,46.318,29.326,45.733,28.396,45.152z M32.729,39.496 C35.056,38.04,37.442,37,40.137,37c3.393,0,5.688,1.197,7.619,2.515C45.494,40.783,43.117,42,40.047,42 C37.505,42,35.114,40.963,32.729,39.496z M49.724,47.059C47.653,48.393,44.258,50,39.873,50c-2.219,0-4.521-0.882-6.828-2.098 C35.431,45.768,37.942,44,40.374,44c2.508,0,5.05,1.153,7.292,2.169C48.416,46.51,49.096,46.815,49.724,47.059z M49.701,38.435 C47.443,36.803,44.61,35,40.137,35c-3.473,0-6.449,1.455-9.234,3.298c-0.854-0.589-1.712-1.21-2.581-1.842 c-1.816-1.32-3.659-2.655-5.594-3.769C26.387,29.582,30.13,27,35.366,27c7.004,0,11.784,4.593,15.275,7.947 c0.831,0.798,1.573,1.509,2.264,2.086C51.778,37.382,50.724,37.887,49.701,38.435z"/><linearGradient id="7sXin3MfjtfreuHT3BP0pb" x1="32" x2="32" y1="6" y2="58" gradientUnits="userSpaceOnUse" spreadMethod="reflect"><stop offset="0" stop-color="#1a6dff"/><stop offset="1" stop-color="#c822ff"/></linearGradient><path fill="none" stroke="url(#7sXin3MfjtfreuHT3BP0pb)" stroke-miterlimit="10" stroke-width="2" d="M32 7A25 25 0 1 0 32 57A25 25 0 1 0 32 7Z"/></svg>