<svg xmlns="http://www.w3.org/2000/svg"  viewBox="0 0 64 64" width="64px" height="64px"><path fill="#acb7d0" d="M60,32c0,2.64-0.37,5.2-1.06,7.62C55.63,51.38,44.82,60,32,60c-3.63,0-7.11-0.69-10.29-1.95	c-0.13-0.05-0.27-0.11-0.4-0.17c-6.87-2.84-12.37-8.33-15.2-15.2c-0.93-2.25-1.57-4.64-1.88-7.14C4.08,34.38,4,33.2,4,32	c0-0.17,0-0.34,0.01-0.51C4.28,16.26,16.71,4,32,4C47.46,4,60,16.54,60,32z"/><path fill="#8d6c9f" d="M12.459,24.039c-0.14,0-0.282-0.029-0.417-0.092l-1.817-0.835 c-0.502-0.23-0.722-0.824-0.491-1.325c0.231-0.503,0.826-0.723,1.326-0.491l1.817,0.835c0.502,0.23,0.722,0.824,0.491,1.326 C13.2,23.823,12.838,24.039,12.459,24.039z"/><path fill="#8d6c9f" d="M14.864,20.034c-0.21,0-0.422-0.066-0.603-0.203l-1.594-1.208 c-0.44-0.334-0.526-0.961-0.193-1.401c0.333-0.439,0.959-0.525,1.401-0.192l1.594,1.208c0.44,0.334,0.526,0.961,0.193,1.401 C15.465,19.897,15.166,20.034,14.864,20.034z"/><path fill="#8d6c9f" d="M18.077,16.643c-0.283,0-0.563-0.119-0.761-0.352l-1.297-1.521 c-0.358-0.42-0.308-1.051,0.112-1.409c0.42-0.36,1.051-0.31,1.41,0.112l1.297,1.521c0.358,0.42,0.308,1.051-0.112,1.409 C18.537,16.564,18.307,16.643,18.077,16.643z"/><path fill="#8d6c9f" d="M21.935,14.011c-0.358,0-0.705-0.192-0.884-0.531l-0.938-1.767 c-0.259-0.487-0.074-1.093,0.414-1.352c0.487-0.263,1.093-0.075,1.353,0.414l0.938,1.767c0.259,0.487,0.074,1.093-0.414,1.352 C22.254,13.974,22.093,14.011,21.935,14.011z"/><path fill="#8d6c9f" d="M26.272,12.283c-0.439,0-0.841-0.291-0.963-0.734l-0.532-1.928 c-0.147-0.532,0.166-1.083,0.698-1.229c0.534-0.147,1.083,0.166,1.23,0.698l0.532,1.928c0.147,0.532-0.166,1.083-0.698,1.229 C26.449,12.271,26.36,12.283,26.272,12.283z"/><path fill="#8d6c9f" d="M30.883,11.549c-0.529,0-0.97-0.415-0.998-0.949l-0.103-1.998 c-0.028-0.551,0.396-1.021,0.947-1.05c0.546-0.03,1.022,0.396,1.05,0.948l0.103,1.998c0.028,0.551-0.396,1.021-0.947,1.05 C30.917,11.549,30.9,11.549,30.883,11.549z"/><path fill="#8d6c9f" d="M35.549,11.808c-0.054,0-0.109-0.004-0.165-0.014c-0.545-0.091-0.913-0.605-0.822-1.15 l0.328-1.973c0.09-0.545,0.601-0.918,1.15-0.822c0.545,0.091,0.913,0.605,0.822,1.15l-0.328,1.973 C36.454,11.461,36.03,11.808,35.549,11.808z"/><path fill="#8d6c9f" d="M40.042,13.07c-0.125,0-0.251-0.023-0.374-0.073c-0.512-0.206-0.76-0.789-0.553-1.302l0.749-1.854 c0.207-0.512,0.79-0.76,1.302-0.552c0.512,0.206,0.76,0.789,0.553,1.302l-0.749,1.854C40.813,12.834,40.438,13.07,40.042,13.07z"/><path fill="#8d6c9f" d="M44.151,15.287c-0.195,0-0.393-0.057-0.565-0.176c-0.455-0.313-0.57-0.936-0.258-1.391 l1.133-1.648c0.313-0.454,0.936-0.571,1.391-0.258c0.455,0.313,0.57,0.936,0.258,1.391l-1.133,1.648 C44.783,15.136,44.47,15.287,44.151,15.287z"/><path fill="#8d6c9f" d="M47.698,18.327c-0.267,0-0.534-0.106-0.73-0.317c-0.377-0.403-0.356-1.036,0.047-1.413 l1.461-1.366c0.403-0.378,1.036-0.357,1.414,0.048c0.377,0.403,0.356,1.036-0.047,1.413l-1.461,1.366 C48.188,18.238,47.943,18.327,47.698,18.327z"/><path fill="#8d6c9f" d="M50.494,22.07c-0.342,0-0.674-0.175-0.861-0.49c-0.282-0.476-0.125-1.089,0.351-1.37l1.721-1.02 c0.475-0.281,1.089-0.125,1.37,0.351c0.282,0.476,0.125,1.089-0.351,1.37l-1.721,1.02C50.843,22.025,50.667,22.07,50.494,22.07z"/><path fill="#8d6c9f" d="M52.434,26.316c-0.421,0-0.813-0.268-0.951-0.689c-0.171-0.525,0.115-1.09,0.64-1.261l1.901-0.621 c0.527-0.174,1.09,0.115,1.261,0.64c0.171,0.525-0.115,1.09-0.64,1.261l-1.901,0.621C52.641,26.301,52.536,26.316,52.434,26.316z"/><path fill="#b5c4e0" d="M42.67,45.5c-9.03,3.34-15.19,8.92-21.36,12.38c-6.87-2.84-12.37-8.33-15.2-15.2 c-0.93-2.25-1.57-4.64-1.88-7.14C4.08,34.38,4,33.2,4,32c0-0.17,0-0.34,0.01-0.51c2.22-0.92,4.51-1.47,6.99-1.47 C21.75,30.02,28.83,40.38,42.67,45.5z"/><path fill="#8d6c9f" d="M21.376,58.989l-0.448-0.186C13.837,55.873,8.1,50.135,5.185,43.061 c-0.977-2.363-1.632-4.853-1.947-7.397C3.08,34.444,3,33.211,3,32c0-0.189,0-0.378,0.011-0.567l0.036-0.626l0.58-0.24 C6.139,29.525,8.551,29.02,11,29.02c6.4,0,11.406,3.391,17.202,7.316c4.188,2.836,8.933,6.05,14.815,8.227l2.535,0.938 l-2.536,0.938c-5.873,2.173-10.615,5.384-14.8,8.216c-2.211,1.498-4.301,2.912-6.417,4.099L21.376,58.989z M5,32.173 c0.007,1.069,0.082,2.158,0.221,3.239c0.294,2.372,0.904,4.687,1.813,6.886c2.652,6.438,7.815,11.687,14.211,14.469 c1.903-1.098,3.824-2.398,5.85-3.77c3.717-2.516,7.866-5.324,12.89-7.497c-5.033-2.177-9.185-4.988-12.905-7.509 C21.557,34.251,16.786,31.02,11,31.02C9.015,31.02,7.046,31.397,5,32.173z"/><path fill="#ed7899" d="M42.67,45.5c-9.02,3.5-14.71,9.68-20.95,12.55c-0.52-0.21-1.03-0.42-1.53-0.66 c-0.29-0.13-0.58-0.27-0.86-0.42c-0.49-0.24-0.97-0.51-1.43-0.78c-0.38-0.22-0.75-0.45-1.12-0.69c-0.07-0.04-0.14-0.09-0.21-0.14 c-0.24-0.15-0.47-0.31-0.7-0.48c-0.59-0.41-1.16-0.85-1.71-1.31c-0.18-0.14-0.37-0.3-0.54-0.45c-0.17-0.15-0.34-0.3-0.5-0.45 c-0.26-0.24-0.52-0.48-0.77-0.73c-0.33-0.33-0.66-0.66-0.97-1.01c-0.32-0.34-0.63-0.69-0.92-1.05c-0.28-0.33-0.54-0.67-0.8-1.01 c-0.08-0.09-0.15-0.19-0.21-0.29C9.23,48.29,9.02,48,8.82,47.7c-0.03-0.03-0.05-0.07-0.07-0.11c-0.21-0.31-0.42-0.62-0.61-0.94 c-0.25-0.4-0.48-0.8-0.71-1.21C7.35,45.3,7.28,45.15,7.2,45c-0.18-0.34-0.35-0.67-0.5-1.01c0,0-0.01-0.01-0.02-0.02 c-0.2-0.43-0.39-0.86-0.57-1.29c-0.93-2.25-1.57-4.64-1.88-7.14c3.56-2.37,6.98-4.11,10.99-4.11c1.87,0,3.62,0.38,5.31,1.03 C27.24,35.02,33.08,41.78,42.67,45.5z"/><path fill="#8d6c9f" d="M21.745,59.139l-0.4-0.162c-0.54-0.218-1.069-0.437-1.588-0.686c-0.288-0.128-0.599-0.278-0.9-0.44 c-0.478-0.232-0.98-0.516-1.462-0.798c-0.391-0.227-0.775-0.465-1.159-0.714c-0.045-0.024-0.141-0.09-0.236-0.157 c-0.222-0.138-0.473-0.313-0.723-0.497c-0.569-0.396-1.168-0.854-1.757-1.348c-0.169-0.131-0.375-0.304-0.559-0.466 c-0.211-0.187-0.372-0.329-0.524-0.473c-0.278-0.256-0.54-0.498-0.792-0.751c-0.345-0.345-0.688-0.689-1.012-1.056 c-0.317-0.335-0.644-0.705-0.95-1.085c-0.275-0.323-0.545-0.677-0.815-1.029c-0.066-0.07-0.159-0.199-0.243-0.333 c-0.21-0.278-0.411-0.557-0.604-0.843c-0.059-0.074-0.101-0.146-0.13-0.2c-0.209-0.31-0.418-0.621-0.608-0.94 c-0.247-0.395-0.485-0.809-0.722-1.23c-0.054-0.094-0.105-0.196-0.158-0.3L6.317,45.47c-0.166-0.312-0.322-0.615-0.464-0.924 l-0.08-0.154c-0.206-0.441-0.401-0.883-0.586-1.326c-0.979-2.368-1.634-4.857-1.95-7.402L3.162,35.05l0.514-0.342 c3.337-2.223,7.046-4.278,11.544-4.278c1.896,0,3.751,0.358,5.669,1.097c3.189,1.217,6.174,3.337,9.334,5.582 c3.621,2.572,7.726,5.488,12.808,7.459l2.403,0.933l-2.403,0.933c-5.088,1.974-9.193,4.892-12.814,7.466 c-2.753,1.958-5.354,3.807-8.08,5.06L21.745,59.139z M9.628,47.109l0.023,0.035c0.189,0.283,0.387,0.557,0.595,0.831l0.062,0.091 c0.028,0.048,0.06,0.096,0.098,0.139c0.297,0.385,0.547,0.711,0.816,1.028c0.291,0.36,0.583,0.689,0.885,1.011 c0.317,0.358,0.634,0.674,0.949,0.989c0.234,0.233,0.477,0.458,0.72,0.683c0.166,0.154,0.312,0.283,0.458,0.413 c0.201,0.177,0.375,0.324,0.54,0.453c0.57,0.476,1.122,0.898,1.666,1.276c0.233,0.172,0.442,0.317,0.66,0.455 c0.094,0.064,0.134,0.095,0.174,0.117c0.406,0.262,0.762,0.482,1.127,0.695c0.441,0.259,0.899,0.517,1.366,0.745 c0.293,0.156,0.562,0.285,0.83,0.405c0.369,0.177,0.729,0.332,1.091,0.481c2.423-1.174,4.829-2.884,7.369-4.689 c3.189-2.267,6.742-4.793,11.047-6.769c-4.3-1.973-7.853-4.496-11.041-6.761c-3.054-2.169-5.938-4.218-8.892-5.345 c-1.688-0.649-3.308-0.965-4.954-0.965c-3.744,0-6.977,1.688-9.914,3.6c0.318,2.153,0.898,4.26,1.729,6.269 c0.154,0.369,0.317,0.74,0.489,1.112l0.006,0.007l0.086,0.17c0.14,0.317,0.3,0.627,0.468,0.944l0.101,0.196 c0.038,0.074,0.074,0.147,0.115,0.218c0.225,0.401,0.447,0.788,0.689,1.176c0.191,0.32,0.391,0.614,0.589,0.907L9.628,47.109z"/><path fill="#85cbf8" d="M58.94,39.62C55.63,51.38,44.82,60,32,60c-11.68,0-21.69-7.16-25.89-17.32	C17.64,36.04,24.78,26.5,34.93,26.5C43.58,26.5,50.06,33.45,58.94,39.62z"/><path fill="#f283a5" d="M42.67,45.5c-9.02,3.5-14.71,9.68-20.95,12.55c-0.52-0.21-1.03-0.42-1.53-0.66	c-0.29-0.13-0.58-0.27-0.86-0.42c-0.49-0.24-0.97-0.51-1.43-0.78c-0.38-0.22-0.75-0.45-1.12-0.69c-0.07-0.04-0.14-0.09-0.21-0.14	c-0.24-0.15-0.47-0.31-0.7-0.48c-0.59-0.41-1.16-0.85-1.71-1.31c-0.18-0.14-0.37-0.3-0.54-0.45c-0.17-0.15-0.34-0.3-0.5-0.45	c-0.26-0.24-0.52-0.48-0.77-0.73c-0.33-0.33-0.66-0.66-0.97-1.01c-0.32-0.34-0.63-0.69-0.92-1.05c-0.28-0.33-0.54-0.67-0.8-1.01	c-0.08-0.09-0.15-0.19-0.21-0.29C9.23,48.29,9.02,48,8.82,47.7c-0.03-0.03-0.05-0.07-0.07-0.11c-0.21-0.31-0.42-0.62-0.61-0.94	c-0.25-0.4-0.48-0.8-0.71-1.21C7.35,45.3,7.28,45.15,7.2,45c-0.18-0.34-0.35-0.67-0.5-1.01c0,0-0.01-0.01-0.02-0.02	c-0.2-0.43-0.39-0.86-0.57-1.29c5.55-3.2,10.08-7.06,14.42-10.22C27.24,35.02,33.08,41.78,42.67,45.5z"/><g><path fill="#8d6c9f" d="M32,61C20.216,61,9.69,53.959,5.186,43.062l-0.335-0.811l0.76-0.438 c3.929-2.263,7.31-4.843,10.579-7.338C22.5,29.659,27.95,25.5,34.93,25.5c6.974,0,12.429,4.164,18.747,8.986 c1.86,1.42,3.785,2.889,5.834,4.313l0.585,0.406l-0.193,0.686C56.404,52.319,44.93,61,32,61z M7.378,43.096 C11.748,52.787,21.318,59,32,59c11.802,0,22.301-7.768,25.777-18.974c-1.863-1.316-3.615-2.653-5.314-3.95 C46.435,31.475,41.228,27.5,34.93,27.5c-6.304,0-11.505,3.97-17.527,8.565C14.296,38.437,11.089,40.884,7.378,43.096z"/></g><path fill="#ace3ff" d="M59.75,35.73c-0.38,2.91-1.22,5.68-2.43,8.24c-0.97,2.05-2.19,3.96-3.6,5.7	C48.58,55.97,40.76,60,32,60c-0.25,0-0.5,0-0.75-0.01c-9.407-0.512-16.316-4.659-21.36-10.82c-0.12-0.14-0.22-0.28-0.33-0.42	c-1.24-1.66-2.31-3.46-3.15-5.39c13.78-5.67,22.17-14.05,34.15-14.05C47.59,29.31,53.38,32.2,59.75,35.73z"/><g><path fill="#ed7899" d="M58.85,39.97c-0.41,1.38-0.92,2.72-1.53,4c-0.97,2.05-2.19,3.96-3.6,5.7 c-0.16,0.2-0.32,0.39-0.5,0.58c-0.06-0.02-0.13-0.05-0.19-0.08c-3.02-1.24-5.96-3.4-10.36-4.67c4.4-1.27,7.34-3.43,10.36-4.67 c1.4-0.58,2.82-0.96,4.41-0.96C57.92,39.87,58.39,39.91,58.85,39.97z"/><path fill="#8d6c9f" d="M53.51,51.397L52.908,51.2c-0.104-0.034-0.227-0.086-0.331-0.139 c-1.079-0.439-2.198-1.029-3.381-1.654c-2.024-1.067-4.116-2.171-6.803-2.946l-3.33-0.961l3.33-0.961 c2.687-0.775,4.779-1.879,6.803-2.946c1.184-0.625,2.302-1.215,3.455-1.688c1.703-0.706,3.226-1.035,4.79-1.035 c0.475,0,0.978,0.035,1.539,0.107l1.165,0.151l-0.334,1.126c-0.429,1.444-0.963,2.839-1.586,4.146 c-0.981,2.074-2.235,4.06-3.726,5.899c-0.172,0.216-0.351,0.426-0.55,0.638L53.51,51.397z M45.701,45.5 c1.656,0.677,3.1,1.438,4.428,2.139c0.973,0.513,1.899,1.002,2.811,1.405c1.394-1.721,2.562-3.57,3.476-5.502 c0.407-0.854,0.773-1.748,1.094-2.672c-1.317-0.005-2.615,0.271-4.097,0.884c-1.067,0.438-2.144,1.006-3.284,1.607 C48.801,44.062,47.357,44.823,45.701,45.5z"/></g><path fill="#f7a1c8" d="M42.67,45.5c-4.27,1.66-7.8,3.92-10.99,6.14c-3.52,2.46-6.63,4.87-9.89,6.37	c-4.76-1.86-8.64-4.89-11.79-8.71c-0.04-0.04-0.07-0.09-0.11-0.13c-0.1-0.13-0.2-0.26-0.3-0.39c-0.01-0.01-0.02-0.02-0.03-0.03	c-0.54-0.72-1.04-1.47-1.51-2.24c-0.28-0.45-0.54-0.91-0.78-1.38c-0.19-0.35-0.37-0.7-0.53-1.05c-0.12-0.24-0.22-0.48-0.33-0.72	c6.88-2.83,12.41-6.34,17.72-9.13c2.44,1.43,4.87,3.27,7.55,5.13C34.87,41.58,38.4,43.84,42.67,45.5z"/><path fill="#e3f2ff" d="M57.32,43.97c-0.97,2.05-2.19,3.96-3.6,5.7c-3.62,2.64-7.42,4.98-12.46,4.98	c-7.74,0-12.55-5.52-18.3-9.15c5.75-3.63,10.56-9.15,18.3-9.15C47.98,36.35,52.49,40.51,57.32,43.97z"/><g><path fill="#8d6c9f" d="M12.41,50.02c-0.995,0-2.016-0.097-3.034-0.286l-0.385-0.072l-0.234-0.314 c-1.36-1.828-2.49-3.776-3.356-5.791l-0.414-0.961l0.979-0.37c2.184-0.825,4.352-1.244,6.444-1.244 c6.092,0,10.944,3.566,11.147,3.718l1.075,0.802l-1.075,0.802C23.354,46.453,18.502,50.02,12.41,50.02z M10.128,47.834 c0.768,0.123,1.534,0.186,2.282,0.186c3.699,0,6.97-1.536,8.685-2.52c-1.715-0.983-4.986-2.52-8.685-2.52 c-1.53,0-3.115,0.257-4.725,0.765C8.364,45.154,9.183,46.525,10.128,47.834z"/></g><path fill="#fbd" d="M42.67,45.5c-4.27,1.66-7.8,3.92-10.99,6.14c-3.01-1.87-5.74-4.26-8.72-6.14	c2.98-1.88,5.71-4.27,8.72-6.14C34.87,41.58,38.4,43.84,42.67,45.5z"/><g><path fill="#72caaf" d="M59.75,35.73c-4.897-2.714-9.453-5.043-14.491-5.978c4.344,2.592,8.623,6.354,13.679,9.867 C59.296,38.355,59.576,37.059,59.75,35.73z"/></g><g><path fill="#8d6c9f" d="M32,61c-0.263,0-0.526,0-0.789-0.011c-1.41-0.076-2.788-0.234-4.11-0.469 c-0.543-0.096-0.906-0.615-0.81-1.159c0.096-0.543,0.616-0.907,1.159-0.81c1.243,0.22,2.54,0.368,3.855,0.44 C31.526,59.001,31.763,59.002,32,59c8.146,0,15.78-3.631,20.945-9.962c1.388-1.714,2.557-3.563,3.471-5.496 c1.099-2.323,1.853-4.767,2.246-7.271c-5.983-3.293-11.53-5.962-18.102-5.962c-5.941,0-10.995,2.095-17.222,5.474 c-0.486,0.263-1.093,0.083-1.356-0.402c-0.264-0.485-0.083-1.092,0.402-1.355c6.503-3.528,11.812-5.716,18.176-5.716 c7.271,0,13.212,2.965,19.675,6.546l0.595,0.33l-0.088,0.675c-0.385,2.945-1.232,5.817-2.518,8.537 c-0.982,2.077-2.236,4.063-3.727,5.902C48.948,57.101,40.749,61,32,61z M23.396,59.577c-0.102,0-0.205-0.016-0.307-0.048 c-1.318-0.425-2.61-0.945-3.839-1.547c-0.496-0.243-0.701-0.843-0.458-1.338c0.243-0.496,0.841-0.701,1.338-0.459 c1.143,0.561,2.345,1.045,3.573,1.439c0.525,0.17,0.814,0.732,0.645,1.259C24.211,59.308,23.819,59.577,23.396,59.577z M16.239,56.067c-0.195,0-0.392-0.057-0.565-0.176c-2.382-1.635-4.589-3.683-6.558-6.088c-0.077-0.09-0.161-0.198-0.243-0.307 l-0.099-0.129c-1.339-1.793-2.438-3.673-3.281-5.608l-0.407-0.936l0.944-0.389c4.834-1.989,9.09-4.368,12.845-6.467 c0.482-0.268,1.092-0.097,1.361,0.385c0.27,0.482,0.097,1.092-0.385,1.361c-3.555,1.987-7.554,4.222-12.099,6.167 c0.714,1.472,1.59,2.903,2.61,4.27l0.103,0.134c0.059,0.077,0.118,0.155,0.184,0.232c1.865,2.277,3.931,4.197,6.158,5.726 c0.455,0.313,0.571,0.935,0.259,1.39C16.871,55.916,16.558,56.067,16.239,56.067z"/></g><path fill="#fbd" d="M57.32,43.97c-0.97,2.05-2.19,3.96-3.6,5.7c-0.23,0.17-0.46,0.33-0.69,0.5	c-3.02-1.24-5.96-3.4-10.36-4.67c4.4-1.27,7.34-3.43,10.36-4.67C54.47,41.85,55.88,42.94,57.32,43.97z"/><g><path fill="#8d6c9f" d="M41.26,55.65c-1.641,0-3.207-0.228-4.787-0.696c-0.53-0.157-0.832-0.714-0.675-1.243 c0.157-0.529,0.715-0.833,1.243-0.675c1.394,0.413,2.773,0.614,4.219,0.614c4.843,0,8.47-2.315,11.765-4.711 c1.196-1.49,2.226-3.081,3.068-4.737c-0.138-0.028-0.273-0.086-0.394-0.176l-0.98-0.727c-4.116-3.06-8.004-5.95-13.458-5.95 c-2.512,0-4.843,0.6-7.336,1.889c-0.493,0.251-1.095,0.06-1.347-0.43c-0.254-0.49-0.062-1.094,0.429-1.348 c2.75-1.421,5.45-2.111,8.254-2.111c6.115,0,10.455,3.226,14.651,6.346l0.974,0.722c0.192,0.142,0.319,0.34,0.375,0.555 c0.166-0.016,0.33,0.019,0.488,0.094c0.499,0.236,0.712,0.833,0.476,1.332c-0.982,2.077-2.236,4.063-3.727,5.902l-0.188,0.178 C50.877,52.98,46.756,55.65,41.26,55.65z M33.078,53.446c-0.16,0-0.323-0.038-0.474-0.12c-0.576-0.311-1.159-0.654-1.783-1.05 c-0.466-0.296-0.604-0.914-0.309-1.38c0.296-0.467,0.915-0.605,1.38-0.31c0.584,0.371,1.128,0.691,1.662,0.979 c0.486,0.263,0.667,0.869,0.405,1.355C33.778,53.256,33.434,53.446,33.078,53.446z M28.075,50.144 c-0.207,0-0.415-0.063-0.593-0.196l-0.896-0.665c-1.35-1.005-2.745-2.044-4.159-2.937l-1.34-0.846l1.34-0.846 c1.418-0.895,2.817-1.938,4.171-2.945c0.955-0.712,1.911-1.424,2.888-2.099c0.454-0.315,1.078-0.201,1.391,0.254 c0.314,0.454,0.201,1.077-0.253,1.391c-0.958,0.662-1.895,1.36-2.831,2.058c-0.981,0.731-1.987,1.479-3.018,2.188 c1.027,0.704,2.028,1.45,3.005,2.178l0.891,0.662c0.444,0.328,0.538,0.954,0.21,1.398C28.684,50.003,28.381,50.144,28.075,50.144z"/></g><g><path fill="#8d6c9f" d="M32,61c-0.263,0-0.526,0-0.789-0.011c-8.694-0.23-16.757-4.315-22.11-11.206 c-0.062-0.069-0.145-0.178-0.228-0.286l-0.099-0.129c-1.339-1.793-2.438-3.673-3.281-5.608l-0.092-0.204C3.809,39.899,3,36.01,3,32 C3,16.01,16.009,3,32,3s29,13.01,29,29c0,1.33-0.087,2.631-0.26,3.868c-0.196,1.498-0.51,2.977-0.932,4.388 c-0.429,1.443-0.962,2.839-1.586,4.145c-0.981,2.074-2.235,4.06-3.726,5.899c-0.172,0.216-0.351,0.426-0.55,0.638 C48.463,57.319,40.453,61,32,61z M32,5C17.112,5,5,17.112,5,32c0,3.733,0.752,7.354,2.237,10.761l0.092,0.204 c0.779,1.791,1.8,3.537,3.033,5.187l0.103,0.134c0.059,0.077,0.118,0.155,0.184,0.232c5.016,6.455,12.523,10.258,20.628,10.473 c0.25,0.011,0.484,0.016,0.724,0.01c7.869,0,15.327-3.427,20.461-9.401c0.192-0.205,0.334-0.374,0.477-0.552 c1.395-1.723,2.563-3.572,3.478-5.505c0.58-1.215,1.076-2.512,1.476-3.857c0.392-1.311,0.684-2.685,0.867-4.084 C58.919,34.446,59,33.237,59,32C59,17.112,46.888,5,32,5z"/></g></svg>